# xmcd CD database file
#
# Track frame offsets:
#	150
#	453
#	33460
#	53629
#	88949
#	106676
#	121367
#	138271
#	168369
#	168695
#	188221
#	209879
#	230833
#
# Disc length: 3292 seconds
#
# Revision: 0
# Processed by: cddbd v1.5.2PL0 Copyright (c) Steve Scherf et al.
# Submitted via: CDex 1.70beta2
#
DISCID=b30cda0d
DTITLE=Mike Morgan and The Crawl - I Like The Way You Work It!
DYEAR=1900
DGENRE=Blues
TTITLE0=Somebody Help Me
TTITLE1=One Of A Kind
TTITLE2=I Like The Way You Work It
TTITLE3=What Do That Mean?
TTITLE4=Hammer
TTITLE5=Face Down In The Dirt
TTITLE6=I Got My Eyes On You
TTITLE7=Flyin' High
TTITLE8=I Wanna Know
TTITLE9=See me Runnin'
TTITLE10=Chasin' Casey
TTITLE11=All My Life
TTITLE12=Martinis For Two
EXTD=
EXTT0=
EXTT1=
EXTT2=
EXTT3=
EXTT4=
EXTT5=
EXTT6=
EXTT7=
EXTT8=
EXTT9=
EXTT10=
EXTT11=
EXTT12=
PLAYORDER=
